<svg width="240" height="15" viewBox="0 0 240 15" fill="none" xmlns="http://www.w3.org/2000/svg">
<g clip-path="url(#clip0_1906_3568)">
<mask id="mask0_1906_3568" style="mask-type:luminance" maskUnits="userSpaceOnUse" x="0" y="0" width="240" height="15">
<path d="M240 0H0V15H240V0Z" fill="white"/>
</mask>
<g mask="url(#mask0_1906_3568)">
<path d="M76.2002 14.3338C75.5885 14.6567 74.2372 15 72.53 15C68.0201 15 65.2773 12.0899 65.2773 7.67166C65.2773 2.88965 68.5238 0 72.8698 0C74.577 0 75.8004 0.367847 76.3242 0.645777L75.7564 2.75886C75.0808 2.4564 74.1532 2.19891 72.9738 2.19891C70.0871 2.19891 67.9961 4.05041 67.9961 7.54496C67.9961 10.733 69.8312 12.7807 72.9498 12.7807C74.0013 12.7807 75.1008 12.564 75.7724 12.2411" fill="#3D86C6"/>
<path d="M79.8667 7.56539C79.8667 10.5163 81.3221 12.8869 83.8089 12.8869C86.2957 12.8869 87.7311 10.4918 87.7311 7.45504C87.7311 4.71662 86.4037 2.10899 83.8089 2.10899C81.2141 2.10899 79.8667 4.56539 79.8667 7.56131M90.4698 7.34469C90.4698 12.2166 87.5831 14.9959 83.661 14.9959C79.7388 14.9959 77.124 11.8692 77.124 7.60627C77.124 3.34332 79.8667 0 83.8729 0C87.879 0 90.4698 3.21253 90.4698 7.34877" fill="#3D86C6"/>
<path d="M104.699 8.83627C104.615 6.96025 104.511 4.70003 104.531 2.71774H104.467C104.003 4.50385 103.412 6.4657 102.78 8.29676L100.713 14.591H98.7098L96.8147 8.38668C96.267 6.53518 95.7632 4.55289 95.3794 2.71774H95.3354C95.2714 4.63464 95.1875 6.9439 95.0835 8.9221L94.7677 14.7627H92.3408L93.2884 0.236816H96.7028L98.5579 6.07742C99.0617 7.77769 99.5055 9.50248 99.8653 11.121H99.9293C100.309 9.54744 100.797 7.76134 101.345 6.05698L103.304 0.236816H106.678L107.502 14.7627H104.975" fill="#3D86C6"/>
<path d="M122.135 8.83627C122.051 6.96025 121.943 4.70003 121.967 2.71774H121.903C121.439 4.50385 120.851 6.4657 120.215 8.29676L118.148 14.591H116.145L114.246 8.38668C113.699 6.53518 113.191 4.55289 112.811 2.71774H112.767C112.703 4.63464 112.619 6.9439 112.515 8.9221L112.199 14.7627H109.776L110.724 0.236816H114.138L115.993 6.07742C116.497 7.77769 116.941 9.50248 117.301 11.121H117.365C117.745 9.54744 118.228 7.76134 118.776 6.05698L120.739 0.236816H124.11L124.933 14.7627H122.402" fill="#3D86C6"/>
<path d="M130.144 0.236816V8.70548C130.144 11.5502 131.303 12.8662 133.054 12.8662C134.933 12.8662 136.049 11.5543 136.049 8.70548V0.236816H138.64V8.53382C138.64 13.0175 136.385 14.9998 132.97 14.9998C129.556 14.9998 127.553 13.1278 127.553 8.55425V0.236816" fill="#3D86C6"/>
<path d="M141.614 14.763V0.241211H144.565L148.235 6.47009C149.187 8.08862 150.006 9.76846 150.654 11.342H150.698C150.53 9.40061 150.47 7.52459 150.47 5.30524V0.241211H152.873V14.7671H150.194L146.488 8.36655C145.58 6.79298 144.633 5.00279 143.937 3.36791L143.873 3.38835C143.977 5.26437 144.001 7.18127 144.001 9.57227V14.7671" fill="#3D86C6"/>
</g>
<path d="M158.454 0.236816H155.863V14.7627H158.454V0.236816Z" fill="#3D86C6"/>
<mask id="mask1_1906_3568" style="mask-type:luminance" maskUnits="userSpaceOnUse" x="0" y="0" width="240" height="15">
<path d="M240 0H0V15H240V0Z" fill="white"/>
</mask>
<g mask="url(#mask1_1906_3568)">
<path d="M171.611 14.3338C171 14.6567 169.648 15 167.941 15C163.431 15 160.692 12.0899 160.692 7.67166C160.692 2.88965 163.939 0 168.281 0C169.988 0 171.211 0.367847 171.739 0.645777L171.171 2.75886C170.496 2.4564 169.568 2.19891 168.389 2.19891C165.498 2.19891 163.411 4.05041 163.411 7.54496C163.411 10.733 165.246 12.7807 168.369 12.7807C169.42 12.7807 170.52 12.564 171.191 12.2411" fill="#3D86C6"/>
<path d="M180.883 8.64417L179.768 5.06379C179.492 4.18096 179.26 3.19186 179.052 2.3499H179.008C178.796 3.19186 178.588 4.20139 178.333 5.06379L177.237 8.64417M176.817 10.6469L175.594 14.7627H172.915L177.473 0.236816H180.779L185.397 14.7627H182.615L181.327 10.6469H176.817Z" fill="#3D86C6"/>
</g>
<path d="M184.342 0.236816V2.46025H188.392V14.7627H190.983V2.46025H195.077V0.236816H184.342Z" fill="#3D86C6"/>
<path d="M199.331 0.236816H196.74V14.7627H199.331V0.236816Z" fill="#3D86C6"/>
<mask id="mask2_1906_3568" style="mask-type:luminance" maskUnits="userSpaceOnUse" x="0" y="0" width="240" height="15">
<path d="M240 0H0V15H240V0Z" fill="white"/>
</mask>
<g mask="url(#mask2_1906_3568)">
<path d="M204.304 7.56539C204.304 10.5163 205.76 12.8869 208.246 12.8869C210.733 12.8869 212.169 10.4918 212.169 7.45504C212.169 4.71662 210.841 2.10899 208.246 2.10899C205.652 2.10899 204.304 4.56539 204.304 7.56131M214.907 7.34469C214.907 12.2166 212.021 14.9959 208.098 14.9959C204.176 14.9959 201.562 11.8692 201.562 7.60627C201.562 3.34332 204.304 0 208.314 0C212.325 0 214.911 3.21253 214.911 7.34877" fill="#3D86C6"/>
<path d="M217.143 14.763V0.241211H220.093L223.763 6.47009C224.711 8.08862 225.535 9.76846 226.186 11.342H226.23C226.062 9.40061 225.994 7.52459 225.994 5.30524V0.241211H228.397V14.7671H225.719L222.008 8.36655C221.105 6.79298 220.149 5.00279 219.458 3.36791L219.398 3.38835C219.501 5.26437 219.525 7.18127 219.525 9.57227V14.7671" fill="#3D86C6"/>
<path d="M231.328 11.8733C232.171 12.3719 233.439 12.8011 234.766 12.8011C236.433 12.8011 237.361 12.0041 237.361 10.8188C237.361 9.71935 236.637 9.07357 234.826 8.40327C232.487 7.54087 230.992 6.26975 230.992 4.1812C230.992 1.81063 232.931 0 236.009 0C237.549 0 238.688 0.343324 239.424 0.731608L238.792 2.86512C238.288 2.58719 237.297 2.17439 235.965 2.17439C234.326 2.17439 233.602 3.07766 233.602 3.91962C233.602 5.03951 234.426 5.55858 236.325 6.31063C238.792 7.25886 239.995 8.52997 239.995 10.6226C239.995 12.9482 238.264 14.9959 234.598 14.9959C233.103 14.9959 231.543 14.5422 230.76 14.0681" fill="#3D86C6"/>
</g>
<path d="M0 0.13916V4.41845H4.05411V14.7018H9.8634V4.41845H13.7976V0.13916H0Z" fill="#3D86C6"/>
<path d="M27.5273 0.13916V4.41845H31.5815V14.7018H37.3867V4.41845H41.3249V0.13916H27.5273Z" fill="#3D86C6"/>
<path d="M17.6951 0.15918L12.4775 14.7218H17.823L20.6977 5.91803L23.5804 14.7218H29.1737L23.6323 0.15918H17.6951Z" fill="#3D86C6"/>
<path d="M45.2067 0.155273L39.9932 14.7179H45.3387L48.2773 5.91822L51.092 14.7179H56.6894L51.084 0.155273H45.2067Z" fill="#3D86C6"/>
</g>
<defs>
<clipPath id="clip0_1906_3568">
<rect width="240" height="15" fill="white"/>
</clipPath>
</defs>
</svg>
